<svg xmlns="http://www.w3.org/2000/svg" width="23.722" height="15.754" viewBox="0 0 23.722 15.754">
  <g id="comment" transform="translate(-1.2 -17.6)">
    <path id="Path_217" data-name="Path 217" d="M7.422,20.152h0a.975.975,0,0,1-.972.972H2.172a.975.975,0,0,1-.972-.972h0a.975.975,0,0,1,.972-.972h4.3A.97.97,0,0,1,7.422,20.152Zm-.948,2.917h-4.3a.975.975,0,0,0-.972.972h0a.975.975,0,0,0,.972.972h4.3a.975.975,0,0,0,.972-.972h0A.991.991,0,0,0,6.474,23.069Zm0,3.865h-4.3a.975.975,0,0,0-.972.972h0a.975.975,0,0,0,.972.972h4.3a.975.975,0,0,0,.972-.972h0A.991.991,0,0,0,6.474,26.933Zm18.448-7.219v8.628a2.116,2.116,0,0,1-2.115,2.115H16.974a.024.024,0,0,1-.024.024l-2.722,2.747a.428.428,0,0,1-.729-.292V30.482H11.335a2.116,2.116,0,0,1-2.115-2.115V19.715A2.116,2.116,0,0,1,11.335,17.6H22.807A2.116,2.116,0,0,1,24.922,19.715Zm-9.746,4.326a.924.924,0,1,0-.924.924A.923.923,0,0,0,15.176,24.041Zm2.819,0a.924.924,0,1,0-.924.924A.923.923,0,0,0,18,24.041Zm2.844,0a.924.924,0,1,0-.924.924A.923.923,0,0,0,20.839,24.041Z" transform="translate(0 0)" fill="#fff"/>
  </g>
</svg>
