<svg xmlns="http://www.w3.org/2000/svg" width="20.667" height="23.477" viewBox="0 0 20.667 23.477">
  <g id="Group_528" data-name="Group 528" transform="translate(0 0)">
    <g id="Group_526" data-name="Group 526" transform="translate(17.494)">
      <path id="Path_277" data-name="Path 277" d="M44.927,4.542H41.8V3.227a.9.9,0,0,1,.317-.725l.091-.091V1.278a1.178,1.178,0,1,1,2.357,0V2.411c.045,0,.045.045.091.091a1.07,1.07,0,0,1,.317.725V4.542Z" transform="translate(-41.8 -0.1)" fill="#fff"/>
      <path id="Path_278" data-name="Path 278" d="M42.1,44.3H45l-1,3.127a.45.45,0,0,1-.453.317.435.435,0,0,1-.408-.317C42.553,45.569,42.236,44.708,42.1,44.3Z" transform="translate(-41.964 -24.268)" fill="#fff"/>
      <path id="Path_279" data-name="Path 279" d="M44.973,25.678H41.845c0-1.813,0-9.789-.045-13.778h3.127C44.973,21.282,44.973,24.59,44.973,25.678Z" transform="translate(-41.8 -6.552)" fill="#fff"/>
    </g>
    <g id="Group_527" data-name="Group 527" transform="translate(0 0.816)">
      <path id="Path_280" data-name="Path 280" d="M31.065,41.413h-.045a.4.4,0,0,1-.408-.272.414.414,0,0,1,.091-.5l.045-.045c.045-.045.045-.045.045-.091s0-.045-.045-.045l-.045-.045a.044.044,0,0,0-.045.045l-.045.045a.414.414,0,0,1-.5.091.436.436,0,0,1-.272-.408v-.136c-.091-.091-.136,0-.136.045v.091a.4.4,0,0,1-.272.408.414.414,0,0,1-.5-.091l-.045-.045a.1.1,0,0,0-.136.136l.045.045a.494.494,0,0,1,.091.5.436.436,0,0,1-.408.272h-.091a.091.091,0,1,0,0,.181h.091a.4.4,0,0,1,.408.272.414.414,0,0,1-.091.5l-.045.045a.085.085,0,0,0,0,.136l.045.045a.044.044,0,0,0,.045-.045l.045-.045a.411.411,0,0,1,.317-.136.273.273,0,0,1,.181.045.436.436,0,0,1,.272.408v.091c0,.091.181.091.181,0v-.045a.4.4,0,0,1,.272-.408.414.414,0,0,1,.5.091l.045.045c.091.045.091.045.136,0a.085.085,0,0,0,0-.136l-.045-.045a.414.414,0,0,1-.091-.5.436.436,0,0,1,.408-.272h.045c.045,0,.045,0,.045-.045l.045-.045Q31.133,41.413,31.065,41.413Z" transform="translate(-16.924 -22.74)" fill="#fff"/>
      <path id="Path_281" data-name="Path 281" d="M31.806,6.851h3.444L30.9,2.5V5.944A.909.909,0,0,0,31.806,6.851Z" transform="translate(-18.346 -2.228)" fill="#fff"/>
      <path id="Path_282" data-name="Path 282" d="M16.661,7.429a1.818,1.818,0,0,1-1.813-1.813V1.9H4.56A1.364,1.364,0,0,0,3.2,3.26V23.2a1.335,1.335,0,0,0,1.36,1.36H19.017a1.335,1.335,0,0,0,1.36-1.36V7.429ZM7.1,8.653h9.336a.453.453,0,0,1,0,.906H7.1a.428.428,0,0,1-.453-.453A.454.454,0,0,1,7.1,8.653ZM5.965,10.6h11.6a.453.453,0,1,1,0,.906H5.965a.428.428,0,0,1-.453-.453A.454.454,0,0,1,5.965,10.6Zm0,1.9h11.6a.453.453,0,1,1,0,.906H5.965a.428.428,0,0,1-.453-.453A.487.487,0,0,1,5.965,12.505Zm0,1.949h11.6a.453.453,0,1,1,0,.906H5.965a.428.428,0,0,1-.453-.453A.487.487,0,0,1,5.965,14.454Zm-.453,2.4a.428.428,0,0,1,.453-.453h11.6a.453.453,0,1,1,0,.906H5.965A.454.454,0,0,1,5.511,16.856ZM18.02,21.388c-.045.045-.091.091-.136.091a.979.979,0,0,1-1.133,1.133.915.915,0,0,1-.816.408,1.1,1.1,0,0,1-.816-.408h-.181a1.111,1.111,0,0,1-.725-.272,1,1,0,0,1-.272-.861.915.915,0,0,1-.408-.816,1.1,1.1,0,0,1,.408-.816v-.181a.922.922,0,0,1,.272-.68,1,1,0,0,1,.861-.272,1,1,0,0,1,1.5-.136c.045.045.091.091.091.136h.181a.922.922,0,0,1,.68.272,1,1,0,0,1,.272.68v.181a.915.915,0,0,1,.408.816A.627.627,0,0,1,18.02,21.388Z" transform="translate(-3.2 -1.9)" fill="#fff"/>
    </g>
  </g>
</svg>
