<svg xmlns="http://www.w3.org/2000/svg" width="23.446" height="24.184" viewBox="0 0 23.446 24.184">
  <g id="service" transform="translate(-3.39 -1.93)">
    <path id="Path_212" data-name="Path 212" d="M3.39,24.81V3.233A1.3,1.3,0,0,1,4.7,1.93h6.288a3.919,3.919,0,0,0-.5,1.934v.674H6V22.71l9.508-4.7a1.3,1.3,0,0,1,1.871,1.167,1.892,1.892,0,1,0,3.773,0V15.707h2.631v3.466A4.508,4.508,0,0,1,20.1,23.6L4.7,26.113a1.3,1.3,0,0,1-1.3-1.3Zm9.1-13.052V3.864A1.934,1.934,0,0,1,14.427,1.93H24.9a1.934,1.934,0,0,1,1.934,1.934v7.893A1.934,1.934,0,0,1,24.9,13.692H19.574l-.013.018-2.5,2.493a.392.392,0,0,1-.672-.277V13.694H14.427a1.934,1.934,0,0,1-1.934-1.937Zm5.318-6.51a.687.687,0,0,0,.687.687h4.5a.687.687,0,1,0,0-1.373H18.5A.687.687,0,0,0,17.811,5.248Zm0,2.46a.687.687,0,0,0,.687.687h4.5a.687.687,0,1,0,0-1.373H18.5A.687.687,0,0,0,17.811,7.708Zm0,2.46a.687.687,0,0,0,.687.687h4.5a.687.687,0,1,0,0-1.373H18.5A.687.687,0,0,0,17.811,10.168ZM15.65,5.248a.687.687,0,1,0,.687-.687.687.687,0,0,0-.687.687Zm0,2.46a.687.687,0,1,0,.687-.687.687.687,0,0,0-.687.687Zm0,2.46a.687.687,0,1,0,.687-.687.687.687,0,0,0-.687.687Z" transform="translate(0 0)" fill="#fff"/>
  </g>
</svg>
