<svg xmlns="http://www.w3.org/2000/svg" width="34.412" height="43.395" viewBox="0 0 34.412 43.395">
  <g id="finish" transform="translate(-15 -9)">
    <g id="Group_26" data-name="Group 26" transform="translate(15 9)">
      <path id="Path_202" data-name="Path 202" d="M45.751,52.395H18.661A3.548,3.548,0,0,1,15,48.9V12.5A3.548,3.548,0,0,1,18.661,9h27.09a3.548,3.548,0,0,1,3.661,3.5V48.9A3.548,3.548,0,0,1,45.751,52.395ZM18.661,10.4a2.111,2.111,0,0,0-2.2,2.1V48.9a2.111,2.111,0,0,0,2.2,2.1h27.09a2.111,2.111,0,0,0,2.2-2.1V12.5a2.111,2.111,0,0,0-2.2-2.1Z" transform="translate(-15 -9)" fill="#fff"/>
    </g>
    <g id="Group_27" data-name="Group 27" transform="translate(22.322 9.732)">
      <path id="Path_203" data-name="Path 203" d="M42.719,15.857H27.05A2.1,2.1,0,0,1,25,13.807V10h1.464v3.807a.63.63,0,0,0,.586.586H42.719a.63.63,0,0,0,.586-.586V10h1.464v3.807A2.1,2.1,0,0,1,42.719,15.857Z" transform="translate(-25 -10)" fill="#fff"/>
    </g>
    <g id="Group_28" data-name="Group 28" transform="translate(17.929 12.661)">
      <path id="Path_204" data-name="Path 204" d="M47.555,49.341H19V14h5.125v1.386H20.464V47.955H46.09V15.386H42.43V14h5.125Z" transform="translate(-19 -14)" fill="#fff"/>
    </g>
    <g id="Group_29" data-name="Group 29" transform="translate(20.857 16.654)">
      <path id="Path_205" data-name="Path 205" d="M31.054,25.125H23V20h8.054Zm-6.59-1.464H29.59v-2.2H24.464Z" transform="translate(-23 -20)" fill="#fff"/>
    </g>
    <g id="Group_30" data-name="Group 30" transform="translate(20.857 25.073)">
      <rect id="Rectangle_18" data-name="Rectangle 18" width="22.697" height="1.464" fill="#fff"/>
    </g>
    <g id="Group_31" data-name="Group 31" transform="translate(20.857 30.664)">
      <rect id="Rectangle_19" data-name="Rectangle 19" width="17.572" height="1.464" fill="#fff"/>
    </g>
    <g id="Group_32" data-name="Group 32" transform="translate(20.857 27.869)">
      <rect id="Rectangle_20" data-name="Rectangle 20" width="20.501" height="1.464" fill="#fff"/>
    </g>
    <g id="Group_33" data-name="Group 33" transform="translate(20.857 33.459)">
      <rect id="Rectangle_21" data-name="Rectangle 21" width="20.501" height="1.464" fill="#fff"/>
    </g>
    <g id="Group_34" data-name="Group 34" transform="translate(37.917 40.547)">
      <path id="Path_206" data-name="Path 206" d="M48.277,58.766,46.3,56.789l1.025-1.025.952.952L50.693,54.3l1.025,1.025Z" transform="translate(-46.3 -54.3)" fill="#fff"/>
    </g>
  </g>
</svg>
