<svg xmlns="http://www.w3.org/2000/svg" width="35.346" height="43.395" viewBox="0 0 35.346 43.395">
  <g id="Group_22" data-name="Group 22" transform="translate(0 0)">
    <g id="Group_14" data-name="Group 14" transform="translate(2.45 0)">
      <g id="Group_10" data-name="Group 10">
        <path id="Path_197" data-name="Path 197" d="M47.4,51.395H21.5A3.466,3.466,0,0,1,18,47.9V34.6h1.4V47.9a2.062,2.062,0,0,0,2.1,2.1H47.4a2.062,2.062,0,0,0,2.1-2.1V11.5a2.062,2.062,0,0,0-2.1-2.1H21.5a2.062,2.062,0,0,0-2.1,2.1V23.4H18V11.5A3.466,3.466,0,0,1,21.5,8H47.4a3.466,3.466,0,0,1,3.5,3.5V47.9A3.466,3.466,0,0,1,47.4,51.395Z" transform="translate(-18 -8)" fill="#fff"/>
      </g>
      <g id="Group_11" data-name="Group 11" transform="translate(6.999 0.7)">
        <path id="Path_198" data-name="Path 198" d="M44.938,14.6H29.96A2,2,0,0,1,28,12.64V9h1.4v3.64a.6.6,0,0,0,.56.56H44.938a.6.6,0,0,0,.56-.56V9h1.4v3.64A2,2,0,0,1,44.938,14.6Z" transform="translate(-28 -9)" fill="#fff"/>
      </g>
      <g id="Group_12" data-name="Group 12" transform="translate(2.8 3.5)">
        <path id="Path_199" data-name="Path 199" d="M49.3,48.7H22V38.9h1.4v8.4H47.9V14.4H44.4V13h4.9Z" transform="translate(-22 -13)" fill="#fff"/>
      </g>
      <g id="Group_13" data-name="Group 13" transform="translate(2.8 3.5)">
        <path id="Path_200" data-name="Path 200" d="M23.4,27H22V13h4.9v1.4H23.4Z" transform="translate(-22 -13)" fill="#fff"/>
      </g>
    </g>
    <g id="Group_18" data-name="Group 18" transform="translate(0 17.148)">
      <g id="Group_15" data-name="Group 15">
        <path id="Path_201" data-name="Path 201" d="M28.428,46.358l-4.479-1.47L14.5,35.44l2.94-2.94,9.449,9.449Zm-3.71-2.66,1.47.49-.49-1.54L17.44,34.39l-.98.98Z" transform="translate(-14.5 -32.5)" fill="#fff"/>
      </g>
      <g id="Group_16" data-name="Group 16" transform="translate(2.386 1.901)">
        <rect id="Rectangle_13" data-name="Rectangle 13" width="1.4" height="2.1" transform="translate(1.485) rotate(45)" fill="#fff"/>
      </g>
      <g id="Group_17" data-name="Group 17" transform="translate(8.873 8.83)">
        <rect id="Rectangle_14" data-name="Rectangle 14" width="1.4" height="2.8" transform="translate(1.98 0) rotate(45)" fill="#fff"/>
      </g>
    </g>
    <g id="Group_19" data-name="Group 19" transform="translate(10.149 10.499)">
      <rect id="Rectangle_15" data-name="Rectangle 15" width="16.798" height="1.4" fill="#fff"/>
    </g>
    <g id="Group_20" data-name="Group 20" transform="translate(10.149 13.998)">
      <rect id="Rectangle_16" data-name="Rectangle 16" width="12.598" height="1.4" fill="#fff"/>
    </g>
    <g id="Group_21" data-name="Group 21" transform="translate(10.149 17.498)">
      <rect id="Rectangle_17" data-name="Rectangle 17" width="16.098" height="1.4" fill="#fff"/>
    </g>
  </g>
</svg>
