<svg xmlns="http://www.w3.org/2000/svg" width="28.044" height="23.801" viewBox="0 0 28.044 23.801">
  <g id="noun_menu_340674" transform="translate(-20.579 -23.608)">
    <g id="Group_39" data-name="Group 39" transform="translate(20.579 23.609)">
      <line id="Line_1" data-name="Line 1" x2="12.873" transform="translate(2.699 2.79)"/>
      <g id="Group_38" data-name="Group 38" transform="translate(0)">
        <path id="Path_220" data-name="Path 220" d="M23.259,29.19H36.132c3.6,0,3.635-5.581.041-5.581H23.3c-3.6,0-3.636,5.581-.041,5.581Z" transform="translate(-20.579 -23.609)" fill="#fff"/>
      </g>
    </g>
    <g id="Group_41" data-name="Group 41" transform="translate(20.73 32.823)">
      <line id="Line_2" data-name="Line 2" x2="12.873" transform="translate(2.549 2.636)"/>
      <g id="Group_40" data-name="Group 40" transform="translate(0 0)">
        <path id="Path_221" data-name="Path 221" d="M23.473,48.38H36.346c3.4,0,3.433-5.271.038-5.271H23.511c-3.4,0-3.433,5.271-.038,5.271Z" transform="translate(-20.943 -43.109)" fill="#fff"/>
      </g>
    </g>
    <g id="Group_43" data-name="Group 43" transform="translate(20.579 41.829)">
      <line id="Line_3" data-name="Line 3" x2="12.873" transform="translate(2.699 2.791)"/>
      <g id="Group_42" data-name="Group 42" transform="translate(0)">
        <path id="Path_222" data-name="Path 222" d="M23.259,67.689H36.132c3.6,0,3.635-5.582.041-5.582H23.3c-3.6,0-3.636,5.582-.041,5.582Z" transform="translate(-20.579 -62.107)" fill="#fff"/>
      </g>
    </g>
    <g id="Group_45" data-name="Group 45" transform="translate(42.983 32.152)">
      <path id="Path_223" data-name="Path 223" d="M77.406,44.17v4.395l3.482-2.2Z" transform="translate(-76.321 -43.06)" fill="#fff"/>
      <g id="Group_44" data-name="Group 44" transform="translate(0)">
        <path id="Path_224" data-name="Path 224" d="M74.781,42.6V46.99a1.094,1.094,0,0,0,1.633.937l3.482-2.2a1.1,1.1,0,0,0,0-1.874l-3.482-2.2c-1.188-.749-2.275,1.129-1.1,1.874l3.482,2.2V43.856l-3.482,2.2,1.633.937V42.6A1.086,1.086,0,0,0,74.781,42.6Z" transform="translate(-74.781 -41.486)" fill="#fff"/>
      </g>
    </g>
  </g>
</svg>
