<svg xmlns="http://www.w3.org/2000/svg" width="23.472" height="20.551" viewBox="0 0 23.472 20.551">
  <g id="order" transform="translate(-3.7 -9.525)">
    <path id="Path_216" data-name="Path 216" d="M4.46,12.434l.862-.253h0L7.4,11.547v5.12l2.383-.456V10.837l2.129-.634,2.155-.634c.025,0,.051,0,.051-.025h.051a.96.96,0,0,1,.38,0H14.6c.025,0,.051,0,.051.025l4,1.191a6.384,6.384,0,0,0-1.217,1.825l-2.053-.608v15.64l7.528-2.256V20.8h.025a6.176,6.176,0,0,0,2.079-.38v5.7a1.08,1.08,0,0,1-.76,1.014l-9.582,2.89a.938.938,0,0,1-.608,0L4.46,27.136a1.035,1.035,0,0,1-.76-1.014V13.448A1.035,1.035,0,0,1,4.46,12.434Zm18.479-1.8a4.233,4.233,0,1,1-4.233,4.233A4.241,4.241,0,0,1,22.939,10.634Zm-2.129,4.36.786.786.811.811.811-.811,1.85-1.85-.811-.811-1.85,1.85-.786-.786Z" transform="translate(0)" fill="#fff"/>
  </g>
</svg>
